<svg width="45" height="49" viewBox="0 0 45 49" fill="none" xmlns="http://www.w3.org/2000/svg">
<path d="M14.0008 33.3836L10.1798 28.3405C8.82396 30.3818 7.7362 35.1271 8.82395 38.5468C10.3517 43.3498 15.6031 45.723 17.3287 46.7119C20.6813 48.6331 24.149 47.9927 25.4637 47.4323C28.6273 45.6712 35.8667 41.6447 39.5151 39.6275C43.1635 37.6102 44.3221 34.6244 44.4454 33.3836V16.0929L44.1989 19.455L41.1174 26.6594L35.8174 32.6632L25.4637 36.2654C20.7522 37.2531 18.2394 36.6577 14.0008 33.3836Z" fill="url(#paint0_linear)"/>
<path d="M31.5037 23.2951C22.0129 34.1018 10.1802 28.2182 10.1802 28.2182C13.0151 35.3026 22.1567 40.5858 34.5852 33.9818C45.4318 28.2182 44.4458 18.2345 44.4458 16.3308C44.4458 12.8727 42.2271 10.4071 41.1178 9.60664C40.0085 8.80614 31.5037 4.32336 31.5037 4.32336C31.5037 4.32336 40.9946 12.4884 31.5037 23.2951Z" fill="url(#paint1_linear)"/>
<path d="M30.4672 14.6197L34.2648 19.3324C35.6207 17.2911 36.7318 12.8762 35.644 9.45648C34.1163 4.6535 28.8648 2.28026 27.1392 1.29142C23.7866 -0.629776 20.319 0.010622 19.0042 0.570969C15.8406 2.33206 8.6013 6.35856 4.95288 8.37581C1.30445 10.3931 0.145832 13.3789 0.0225754 14.6197V31.9104L0.269089 28.5483L3.35052 21.3438L8.6506 15.3401L19.0042 11.7379L30.4672 14.6197Z" fill="url(#paint2_linear)"/>
<path d="M12.9664 24.7052C22.4572 13.8984 34.2666 19.3316 34.2666 19.3316C31.4317 12.2472 22.3134 7.41442 9.88494 14.0185C-0.961731 19.7821 0.0243301 29.7658 0.0243301 31.6695C0.0243301 35.1276 2.24297 37.5932 3.35229 38.3937C4.46161 39.1941 12.6965 43.8268 12.6965 43.8268C12.6965 43.8268 3.47554 35.5119 12.9664 24.7052Z" fill="url(#paint3_linear)"/>
<defs>
<linearGradient id="paint0_linear" x1="45.1106" y1="34.8245" x2="14.7746" y2="43.1454" gradientUnits="userSpaceOnUse">
<stop stop-color="#B4D57C"/>
<stop offset="1" stop-color="#86BE26"/>
</linearGradient>
<linearGradient id="paint1_linear" x1="46.2203" y1="7.20515" x2="16.4524" y2="42.9164" gradientUnits="userSpaceOnUse">
<stop offset="0.376514" stop-color="#C4E58B"/>
<stop offset="1" stop-color="#B4D57C"/>
</linearGradient>
<linearGradient id="paint2_linear" x1="28.9648" y1="7.32492" x2="-2.54287" y2="22.1174" gradientUnits="userSpaceOnUse">
<stop stop-color="#B4D57C"/>
<stop offset="0.684968" stop-color="#86BE26"/>
</linearGradient>
<linearGradient id="paint3_linear" x1="2.21963" y1="36.5022" x2="28.6558" y2="14.6936" gradientUnits="userSpaceOnUse">
<stop stop-color="#C4E58B"/>
<stop offset="0.876654" stop-color="#86BE26"/>
</linearGradient>
</defs>
</svg>
